<svg class="svg-icon" style="width: 1em;height: 1em;vertical-align: middle;fill: currentColor;overflow: hidden;" viewBox="0 0 1024 1024" version="1.1" xmlns="http://www.w3.org/2000/svg"><path d="M828.8 446.4c0-112-91.2-208-203.2-208-99.2 0-180.8 60.8-198.4 147.2h-22.4c-124.8 0-228.8 94.4-241.6 211.2-89.6 19.2-163.2 96-163.2 192 0 112 86.4 198.4 195.2 198.4h358.4c142.4 0 254.4-112 254.4-251.2 0-51.2-17.6-99.2-43.2-137.6 43.2-38.4 64-91.2 64-152z m-201.6-115.2c65.6 0 116.8 51.2 116.8 121.6 0 35.2-12.8 65.6-38.4 86.4-30.4-22.4-60.8-35.2-99.2-43.2-25.6-35.2-60.8-65.6-99.2-81.6 16-57.6 67.2-83.2 120-83.2z m-70.4 569.6H198.4c-65.6 0-112-48-112-108.8s48-108.8 112-108.8h48v-56c0-86.4 68.8-155.2 160-155.2 17.6 0 35.2 4.8 51.2 8 35.2 12.8 68.8 38.4 86.4 73.6l12.8 22.4 22.4 4.8c35.2 4.8 68.8 17.6 94.4 43.2l8 8c30.4 30.4 43.2 68.8 43.2 108.8 1.6 86.4-76.8 160-168 160zM635.2 209.6c25.6 0 43.2-17.6 43.2-43.2V80c0-25.6-17.6-43.2-43.2-43.2S592 54.4 592 80v86.4c0 25.6 17.6 43.2 43.2 43.2zM907.2 171.2c-17.6-17.6-43.2-17.6-60.8 0l-43.2 43.2c-17.6 17.6-17.6 43.2 0 60.8 8 8 17.6 12.8 30.4 12.8 12.8 0 22.4-4.8 30.4-12.8l43.2-43.2c17.6-17.6 17.6-44.8 0-60.8zM980.8 425.6h-43.2c-25.6 0-43.2 17.6-43.2 43.2S912 512 937.6 512h43.2c25.6 0 43.2-17.6 43.2-43.2s-17.6-43.2-43.2-43.2zM393.6 283.2c8 8 22.4 12.8 30.4 12.8 12.8 0 22.4-4.8 30.4-12.8 17.6-17.6 17.6-43.2 0-60.8l-48-48c-17.6-17.6-43.2-17.6-60.8 0-17.6 17.6-17.6 43.2 0 60.8l48 48z"  /></svg>