<svg class="svg-icon" style="width: 1em;height: 1em;vertical-align: middle;fill: currentColor;overflow: hidden;" viewBox="0 0 1024 1024" version="1.1" xmlns="http://www.w3.org/2000/svg"><path d="M679.563636 605.090909H318.060606c-37.236364 0-72.921212-13.963636-100.848485-40.339394-29.478788-27.927273-46.545455-66.715152-46.545454-107.054545 0-65.163636 43.442424-122.569697 103.951515-141.187879 29.478788-89.987879 113.260606-152.048485 207.90303-152.048485 72.921212 0 138.084848 35.684848 179.975758 94.642424h13.963636c94.642424 0 172.218182 77.575758 172.218182 172.218182 0 69.818182-40.339394 131.878788-103.951515 158.254546-18.618182 10.860606-41.890909 15.515152-65.163637 15.515151zM484.072727 211.006061c-79.127273 0-148.945455 54.30303-169.115151 130.327272l-3.103031 13.963637-13.963636 3.10303c-48.09697 9.309091-82.230303 51.2-82.230303 99.29697 0 27.927273 10.860606 54.30303 32.581818 74.472727 18.618182 18.618182 43.442424 27.927273 69.818182 27.927273h359.951515c17.066667 0 34.133333-3.10303 49.648485-10.860606 46.545455-20.169697 77.575758-66.715152 77.575758-117.915152 0-69.818182-57.406061-127.224242-127.224243-127.224242-6.206061 0-13.963636 0-21.721212 1.551515l-15.515151 3.10303-7.757576-13.963636c-31.030303-51.2-86.884848-83.781818-148.945455-83.781818zM533.721212 648.533333c-10.860606-6.206061-24.824242-3.10303-31.030303 7.757576l-58.957576 102.4c-6.206061 10.860606-3.10303 24.824242 7.757576 31.030303 3.10303 1.551515 7.757576 3.10303 10.860606 3.10303 7.757576 0 15.515152-4.654545 20.169697-10.860606l58.957576-102.4c6.206061-10.860606 3.10303-24.824242-7.757576-31.030303z" fill="#707070" /><path d="M425.115152 834.715152m-23.272728 0a23.272727 23.272727 0 1 0 46.545455 0 23.272727 23.272727 0 1 0-46.545455 0Z" fill="#707070" /><path d="M640.775758 648.533333c-10.860606-6.206061-24.824242-3.10303-31.030303 7.757576l-58.957576 102.4c-6.206061 10.860606-3.10303 24.824242 7.757576 31.030303 3.10303 1.551515 7.757576 3.10303 10.860606 3.10303 7.757576 0 15.515152-4.654545 20.169697-10.860606l58.957575-102.4c7.757576-10.860606 3.10303-24.824242-7.757575-31.030303z" fill="#707070" /><path d="M533.721212 834.715152m-23.272727 0a23.272727 23.272727 0 1 0 46.545454 0 23.272727 23.272727 0 1 0-46.545454 0Z" fill="#707070" /><path d="M749.381818 648.533333c-10.860606-6.206061-24.824242-3.10303-31.030303 7.757576l-58.957576 102.4c-6.206061 10.860606-3.10303 24.824242 7.757576 31.030303 3.10303 1.551515 7.757576 3.10303 10.860606 3.10303 7.757576 0 15.515152-4.654545 20.169697-10.860606l58.957576-102.4c7.757576-10.860606 3.10303-24.824242-7.757576-31.030303z" fill="#707070" /><path d="M640.775758 834.715152m-23.272728 0a23.272727 23.272727 0 1 0 46.545455 0 23.272727 23.272727 0 1 0-46.545455 0Z" fill="#707070" /><path d="M425.115152 648.533333c-10.860606-6.206061-24.824242-3.10303-31.030304 7.757576l-58.957575 102.4c-6.206061 10.860606-3.10303 24.824242 7.757575 31.030303 3.10303 1.551515 7.757576 3.10303 10.860607 3.10303 7.757576 0 15.515152-4.654545 20.169697-10.860606l58.957575-102.4c6.206061-10.860606 3.10303-24.824242-7.757575-31.030303z" fill="#707070" /><path d="M316.509091 834.715152m-23.272727 0a23.272727 23.272727 0 1 0 46.545454 0 23.272727 23.272727 0 1 0-46.545454 0Z" fill="#707070" /><path d="M316.509091 648.533333c-10.860606-6.206061-24.824242-3.10303-31.030303 7.757576l-58.957576 102.4c-6.206061 10.860606-3.10303 24.824242 7.757576 31.030303 3.10303 1.551515 7.757576 3.10303 10.860606 3.10303 7.757576 0 15.515152-4.654545 20.169697-10.860606l58.957576-102.4c6.206061-10.860606 3.10303-24.824242-7.757576-31.030303z" fill="#707070" /><path d="M207.90303 834.715152m-23.272727 0a23.272727 23.272727 0 1 0 46.545455 0 23.272727 23.272727 0 1 0-46.545455 0Z" fill="#707070" /></svg>