<svg class="svg-icon" style="width: 1em;height: 1em;vertical-align: middle;fill: currentColor;overflow: hidden;" viewBox="0 0 1024 1024" version="1.1" xmlns="http://www.w3.org/2000/svg"><path d="M332.992 190.016l-52.992 0.96c-119.744 4.384-216 103.264-216 224 0 71.36 33.76 134.912 86.016 176A160.896 160.896 0 0 0 128 672c0 88.256 71.744 160 160 160h37.12c5.76-20.16 16-42.24 27.84-64H288c-52.864 0-96-43.136-96-96s43.136-96 96-96h32v-32c0-35.264 28.64-63.872 60.992-64l32 2.016 6.016-27.008C431.008 395.488 483.264 352 544 352c51.36 0 97.76 30.72 118.016 78.016l8.96 22.048 28.96-3.072c1.408-0.288 2.56-0.992 4.064-0.992 52.864 0 95.872 43.232 96 94.016l-0.992 30.976 24.992 6.08A95.776 95.776 0 0 1 896 672c0 52.864-43.136 96-96 96h-32c0 23.36-7.04 45.12-17.92 64H800c88.256 0 160-71.744 160-160 0-64.64-38.752-122.24-96.992-147.008-8.992-77.376-74.048-137.888-153.024-140.992A190.976 190.976 0 0 0 544 288a192.416 192.416 0 0 0-172 107.008c-42.496-17.504-72.992-58.752-72.992-108 0-17.92 3.744-34.624 11.008-50.016l22.976-46.976zM240 266.016c-0.864 7.36-4.992 13.344-4.992 20.992 0 62.496 31.616 117.216 80 149.984-27.136 17.728-48.384 45.504-56 78.016-24.64 4.48-46.72 14.752-66.016 28.992A160.832 160.832 0 0 1 128 415.008c0-71.616 47.488-128.384 112-148.992zM640 640s-64 92.64-64 128a64 64 0 0 0 64 64c4.384 0 8.864-0.128 12.992-0.992 29.12-6.016 51.008-32 51.008-63.008 0-35.36-64-128-64-128z m-192 96s-9.12 14.496-20 32c-4 6.368-7.744 11.616-12 19.008-5.76 10.016-11.008 19.712-16 29.984-2.496 5.12-4.992 10.176-7.008 15.072-5.248 12.352-8.992 23.808-8.992 31.936a64 64 0 1 0 128 0c0-8.128-3.744-19.616-8.992-32-0.512-0.992-0.512-1.888-0.992-3.008-1.792-3.84-3.968-8-5.952-12A566.56 566.56 0 0 0 468.064 768c-10.912-17.504-20.064-32-20.064-32z"  /></svg>