<svg class="svg-icon" style="width: 1em;height: 1em;vertical-align: middle;fill: currentColor;overflow: hidden;" viewBox="0 0 1024 1024" version="1.1" xmlns="http://www.w3.org/2000/svg"><path d="M312.32 750.08c-22.016 23.04-51.2 57.344-57.856 84.48-7.68 31.744 8.704 64 36.352 72.192s56.832-10.752 64.512-42.496c6.656-27.136-2.56-72.704-10.752-104.448-3.584-15.872-21.504-20.992-32.256-9.728zM668.16 751.104c-22.016 23.04-50.688 57.344-57.856 84.48-7.68 31.744 8.704 64 36.352 72.192s56.832-10.752 64.512-42.496c6.656-27.136-2.56-72.704-10.752-104.448-3.584-15.36-21.504-20.48-32.256-9.728zM731.648 388.608c-26.112 0-50.176 9.728-70.656 22.528 0-3.072 0.512-5.632 0.512-8.192 0-114.176-86.528-210.944-197.12-210.944-91.648 0-171.008 67.072-194.048 155.648-71.68 17.92-124.416 85.504-124.416 165.888 0 86.016 56.32 158.72 135.68 170.496H387.072c10.752-32.256 35.84-69.12 76.288-111.104 15.872-16.384 36.864-25.6 59.392-25.6 37.376 0 70.656 26.112 80.384 62.976 7.168 27.648 12.288 52.224 14.848 73.728h128.512c70.656-7.168 126.976-70.656 126.976-146.432-0.512-81.408-63.488-148.992-141.824-148.992z"  /><path d="M507.392 614.912c-24.576 25.6-56.32 63.488-64 93.696-8.704 34.816 9.728 70.656 40.448 79.872s62.976-12.288 71.68-47.104c7.68-30.208-2.56-80.384-12.288-115.712-4.096-17.408-23.552-23.04-35.84-10.752zM535.04 901.12l-35.328 7.68c-3.584 0.512-6.656-3.072-4.608-6.144l16.896-34.304c1.024-2.56 0-5.632-2.56-6.144l-34.304-9.216c-2.56-0.512-5.12 1.024-5.632 4.096l-2.048 36.864c0 3.584-4.608 5.632-7.168 3.072l-26.624-24.576c-2.048-2.048-5.12-1.536-6.656 1.024l-17.92 28.672c-1.536 2.56-0.512 5.632 2.048 6.144l33.28 11.776c3.584 1.024 4.096 6.144 0.512 7.68l-32.256 17.92c-2.048 1.024-3.072 4.096-1.536 6.144L430.08 977.92c1.536 2.048 5.12 2.56 6.656 0.512l26.624-30.208c2.56-2.56 6.656-1.536 7.68 2.048l8.192 39.936c0.512 2.56 3.584 4.096 5.632 3.072l30.72-12.288c2.56-1.024 3.584-4.096 2.048-6.144l-19.968-33.28c-2.048-3.072 1.024-7.168 4.608-6.656l34.304 6.656c2.56 0.512 5.12-1.536 5.12-4.608l-1.536-32.256c0-2.56-2.56-4.096-5.12-3.584z"  /></svg>