<svg class="svg-icon" style="width: 1em;height: 1em;vertical-align: middle;fill: currentColor;overflow: hidden;" viewBox="0 0 1024 1024" version="1.1" xmlns="http://www.w3.org/2000/svg"><path d="M224 192v99.008a159.84 159.84 0 0 0-56 24L97.984 244 52 290.016l71.008 69.984a159.84 159.84 0 0 0-24 56H0v64h99.008c4.256 20.384 12.736 39.264 24 56l-71.008 70.016 46.016 45.984 69.984-71.008c9.6 6.4 20 11.744 31.008 16-3.872 13.76-7.008 28.16-7.008 43.008 0 88.256 71.744 160 160 160h36.992c5.76-20.128 16.128-42.112 28-64H352c-52.864 0-96-43.136-96-96s43.136-96 96-96h32v-32c0-35.264 28.64-63.872 60.992-64l32 2.016 6.016-27.008C495.008 363.488 547.264 320 608 320c51.36 0 97.76 30.72 118.016 78.016l8.96 21.984 29.024-3.008c1.376-0.256 2.496-0.992 4-0.992 52.864 0 95.872 43.264 96 94.016l-0.992 30.976 24.992 6.016A95.872 95.872 0 0 1 960 640c0 52.864-43.136 96-96 96h-32c0 23.36-7.008 45.12-18.016 64H864c88.256 0 160-71.744 160-160 0-64.64-38.72-122.24-96.992-147.008-9.024-77.376-74.016-137.856-153.024-140.992A190.976 190.976 0 0 0 608 256a193.28 193.28 0 0 0-182.016 130.016c-7.36 1.248-14.08 2.496-20.992 4.992a161.504 161.504 0 0 0-16-31.008l71.008-70.016-46.016-45.984-69.984 71.008A158.848 158.848 0 0 0 288 291.008V192z m32 160a95.584 95.584 0 0 1 94.016 78.016c-12.512 14.976-22.4 33.344-27.008 52.992a157.12 157.12 0 0 0-95.008 56.992A95.648 95.648 0 0 1 160 448c0-53.376 42.624-96 96-96z m448 256s-64 92.64-64 128 28.64 64 64 64c4.384 0 8.864-0.128 12.992-0.992 29.12-6.016 51.008-32 51.008-63.008 0-35.36-64-128-64-128z m-192 96s-9.12 14.496-20 32c-4 6.4-7.744 11.616-12 19.008-5.76 9.984-11.008 19.744-16 29.984-2.496 5.12-4.992 10.144-7.008 15.008-5.248 12.384-8.992 23.872-8.992 32a63.968 63.968 0 1 0 128 0c0-8.128-3.744-19.616-8.992-32-0.512-0.992-0.512-1.888-1.024-3.008-1.728-3.84-4-8-5.984-12A570.464 570.464 0 0 0 532 736c-10.88-17.504-20-32-20-32z"  /></svg>